<svg xmlns="http://www.w3.org/2000/svg" version="1.1" xmlns:xlink="http://www.w3.org/1999/xlink" xmlns:svgjs="http://svgjs.dev/svgjs" width="1000" height="1000" viewBox="0 0 1000 1000"><rect width="1000" height="1000" fill="#000000"></rect><g transform="matrix(0.7,0,0,0.7,150.00000000000023,106.25)"><svg viewBox="0 0 320 360" data-background-color="#ffffff" preserveAspectRatio="xMidYMid meet" height="1125" width="1000" xmlns="http://www.w3.org/2000/svg" xmlns:xlink="http://www.w3.org/1999/xlink"><g id="tight-bounds" transform="matrix(1,0,0,1,-5.684341886080802e-14,0)"><svg viewBox="0 0 320 360" height="360" width="320"><rect width="320.00000000000017" height="360" fill="#ffffff" mask="url(#bb8c48a0-1b2a-402f-b64e-adbbc4b1e012)" data-fill-palette-color="tertiary"></rect><g><svg></svg></g><g><svg viewBox="0 0 320 360" height="360" width="320"><g><path d="M320 204.145c-0.08-8.44-5.414-15.128-5.494-23.568-0.04-8.44 5.215-18.631 5.136-27.071-2.667-8.002-9.833-12.7-12.501-20.702-2.667-8.002-0.836-19.348-3.463-27.35-5.016-6.808-13.297-9.037-18.274-15.805-5.016-6.808-6.768-18.154-11.744-24.921-6.847-4.897-15.407-4.499-22.294-9.396-6.847-4.897-12.023-15.168-18.91-20.065-8.042-2.548-16.044 0.518-24.086-2.07-8.042-2.548-16.123-10.709-24.165-13.257-8.44 0.08-15.128 5.414-23.568 5.494-8.44 0.04-18.631-5.215-27.071-5.135-8.002 2.667-12.7 9.833-20.702 12.5-8.002 2.667-19.348 0.836-27.35 3.504-6.808 5.016-9.037 13.297-15.805 18.273-6.808 5.016-18.154 6.768-24.922 11.784-4.897 6.847-4.499 15.407-9.395 22.294-4.897 6.847-15.168 12.023-20.065 18.91-2.548 8.042 0.478 16.044-2.07 24.086-2.548 8.042-10.709 16.123-13.257 24.165 0.04 8.44 5.414 15.128 5.494 23.568 0.04 8.44-5.215 18.631-5.136 27.071 2.667 8.002 9.833 12.7 12.501 20.702 2.667 8.002 0.836 19.348 3.503 27.35 5.016 6.808 13.297 9.037 18.273 15.845 5.016 6.808 6.768 18.154 11.745 24.921 6.847 4.897 15.407 4.499 22.294 9.396 6.847 4.897 12.023 15.168 18.91 20.065 8.042 2.548 16.044-0.478 24.086 2.07 8.042 2.548 16.123 10.709 24.165 13.257 8.44-0.08 15.128-5.414 23.568-5.494 8.44-0.04 18.631 5.215 27.071 5.135 8.002-2.667 12.7-9.833 20.702-12.5 8.002-2.667 19.348-0.836 27.35-3.504 6.808-5.016 9.037-13.297 15.845-18.273 6.808-5.016 18.154-6.768 24.921-11.744 4.897-6.847 4.499-15.407 9.396-22.294 4.897-6.847 15.168-12.023 20.064-18.91 2.548-8.042-0.478-16.044 2.071-24.086 2.468-8.121 10.63-16.203 13.177-24.245zM305.987 227.395c-3.623 7.126-12.501 13.456-16.164 20.582-3.623 7.126-2.03 15.088-5.653 22.215-5.653 5.653-16.044 8.918-21.737 14.57-5.653 5.653-6.569 13.735-12.261 19.388-7.126 3.623-18.034 3.503-25.161 7.166-7.126 3.623-10.51 11.028-17.636 14.651-7.922 1.234-18.233-2.229-26.156-0.996-7.922 1.234-13.416 7.246-21.299 8.48-7.922-1.234-16.641-7.763-24.563-8.997-7.922-1.274-14.969 2.747-22.891 1.473-7.126-3.623-13.456-12.54-20.582-16.163-7.126-3.623-15.088-2.03-22.255-5.654-5.653-5.653-8.918-16.044-14.571-21.736-5.653-5.653-13.735-6.609-19.387-12.262-3.623-7.126-3.503-18.034-7.166-25.161-3.623-7.126-11.028-10.51-14.651-17.636-1.234-7.922 2.229-18.233 0.995-26.156-1.274-7.922-7.246-13.416-8.479-21.298 1.274-7.922 7.763-16.641 8.997-24.564 1.234-7.922-2.747-14.969-1.473-22.891 3.623-7.126 12.54-13.456 16.163-20.582 3.623-7.126 2.03-15.088 5.653-22.254 5.653-5.653 16.044-8.918 21.737-14.571 5.653-5.653 6.609-13.735 12.262-19.388 7.126-3.623 18.034-3.503 25.16-7.166 7.126-3.623 10.51-11.028 17.637-14.651 7.922-1.234 18.233 2.229 26.155 0.996 7.922-1.234 13.416-7.246 21.299-8.48 7.922 1.234 16.641 7.763 24.564 8.997 7.922 1.274 14.969-2.747 22.891-1.473 7.126 3.623 13.456 12.54 20.582 16.163 7.126 3.623 15.088 2.03 22.254 5.654 5.653 5.653 8.918 16.044 14.571 21.736 5.653 5.653 13.735 6.609 19.388 12.262 3.623 7.126 3.503 18.034 7.166 25.161 3.623 7.126 11.028 10.51 14.65 17.636 1.274 7.922-2.229 18.233-0.995 26.156 1.234 7.922 7.246 13.416 8.48 21.298-1.234 7.922-7.763 16.641-8.997 24.564-1.234 7.922 2.747 15.009 1.473 22.931z" fill="#ffffff" fill-rule="nonzero" stroke="none" stroke-width="1" stroke-linecap="butt" stroke-linejoin="miter" stroke-miterlimit="10" stroke-dasharray="" stroke-dashoffset="0" font-family="none" font-weight="none" font-size="none" text-anchor="none" style="mix-blend-mode: normal" data-fill-palette-color="tertiary"></path></g><g transform="matrix(1,0,0,1,48,163.3088375504217)"><svg viewBox="0 0 224 33.382324899156586" height="33.382324899156586" width="224"><g><svg viewBox="0 0 224 33.382324899156586" height="33.382324899156586" width="224"><g><svg viewBox="0 0 224 33.382324899156586" height="33.382324899156586" width="224"><g><svg viewBox="0 0 224 33.382324899156586" height="33.382324899156586" width="224"><g id="textblocktransform"><svg viewBox="0 0 224 33.382324899156586" height="33.382324899156586" width="224" id="textblock"><g><svg viewBox="0 0 224 33.382324899156586" height="33.382324899156586" width="224"><g transform="matrix(1,0,0,1,0,0)"><svg width="224" viewBox="3.25 -36.69 332.85 49.61" height="33.382324899156586" data-palette-color="url(#52aaaadf-3533-4156-abf9-f6e2dc1e8aa7)"></svg></g></svg></g></svg></g></svg></g><g></g></svg></g></svg></g></svg></g></svg></g><defs></defs><mask id="d6bd120b-993a-4d17-8b83-4dca52247b47"><g id="SvgjsG1099"><svg viewBox="0 0 320 360" height="360" width="320"><g><svg></svg></g><g><svg viewBox="0 0 320 360" height="360" width="320"><g></g><g transform="matrix(1,0,0,1,48,163.3088375504217)"><svg viewBox="0 0 224 33.382324899156586" height="33.382324899156586" width="224"><g><svg viewBox="0 0 224 33.382324899156586" height="33.382324899156586" width="224"><g><svg viewBox="0 0 224 33.382324899156586" height="33.382324899156586" width="224"><g><svg viewBox="0 0 224 33.382324899156586" height="33.382324899156586" width="224"><g id="SvgjsG1098"><svg viewBox="0 0 224 33.382324899156586" height="33.382324899156586" width="224" id="SvgjsSvg1097"><g><svg viewBox="0 0 224 33.382324899156586" height="33.382324899156586" width="224"><g transform="matrix(1,0,0,1,0,0)"><svg width="224" viewBox="3.25 -36.69 332.85 49.61" height="33.382324899156586" data-palette-color="url(#52aaaadf-3533-4156-abf9-f6e2dc1e8aa7)"><path d="M11.4-32.1L11.4-32.1 11.4-4.39Q11.4-2.42 12.21-1.51 13.01-0.61 15.26-0.2L15.26-0.2 15.04 0.39Q12.26 0 10.64 0L10.64 0Q9.2 0 7.3 0.39L7.3 0.39 7.15 0.15Q7.64-0.56 7.64-2.44L7.64-2.44 7.64-28.1Q7.64-31.57 6.85-32.65 6.05-33.74 3.34-33.74L3.34-33.74 3.25-34.45Q10.03-35.45 14.16-35.45L14.16-35.45Q16.99-35.45 19.18-35.03 21.36-34.62 23.12-33.65 24.88-32.69 25.82-30.98 26.76-29.27 26.76-26.86L26.76-26.86Q26.76-24.19 25.04-22.01 23.32-19.82 20.76-18.69 18.21-17.55 15.55-17.55L15.55-17.55Q14.5-17.55 13.99-17.65L13.99-17.65 13.99-18.51Q15.84-18.51 17.42-18.99 18.99-19.48 20.23-20.46 21.46-21.44 22.16-23.03 22.85-24.63 22.85-26.71L22.85-26.71Q22.85-30.05 21.17-32.01 19.48-33.96 15.89-33.96L15.89-33.96Q13.26-33.96 11.25-33.64L11.25-33.64Q11.4-32.91 11.4-32.1ZM50-17.65L50-2.76Q50-2.34 50.18-1.99 50.36-1.64 50.62-1.4 50.88-1.17 51.36-0.95 51.85-0.73 52.22-0.61 52.59-0.49 53.24-0.29L53.24-0.29 53.05 0.29Q51.49 0 49.95 0L49.95 0Q48.02 0 46.14 0.39L46.14 0.39 45.99 0.15Q46.51-0.56 46.51-2.44L46.51-2.44 46.51-4.05Q45.29-1.78 42.71-0.39 40.13 1 37.5 1L37.5 1Q34.69 1 32.97-0.45 31.25-1.9 31.25-4.76L31.25-4.76Q31.25-6.62 32.02-8.07 32.79-9.52 34.07-10.53 35.35-11.55 37.36-12.33 39.38-13.11 41.51-13.6 43.65-14.09 46.51-14.5L46.51-14.5 46.51-16.75Q46.51-23.46 41.21-23.46L41.21-23.46Q39.5-23.46 37.02-22.62 34.54-21.78 32.86-20.41L32.86-20.41 31.86-21.56Q33.98-23.24 36.9-24.34 39.82-25.44 42.36-25.44L42.36-25.44Q43.48-25.44 44.49-25.23 45.51-25.02 46.54-24.48 47.58-23.93 48.33-23.08 49.07-22.24 49.53-20.84 50-19.43 50-17.65L50-17.65ZM38.64-0.85L38.64-0.85Q40.77-0.85 43.09-2.26 45.41-3.66 46.51-5.76L46.51-5.76 46.51-13.21Q40.26-12.3 37.58-10.44 34.91-8.57 34.91-5L34.91-5Q34.91-2.83 35.84-1.84 36.77-0.85 38.64-0.85ZM59.93 12.6L59.93 12.6Q59.71 12.72 58.99 12.82 58.27 12.92 57.15 12.92 56.03 12.92 54.49 12.52 52.95 12.13 51.48 11.35L51.48 11.35Q52.41 9.69 54.54 8.2L54.54 8.2 54.88 8.45Q56.9 11.69 59.54 11.01L59.54 11.01Q60.22 9.79 60.48 7.13 60.74 4.47 60.74-2.2L60.74-2.2 60.74-18.09Q60.74-21.53 59.91-22.73 59.08-23.93 56.44-23.75L56.44-23.75 56.34-24.19Q60.37-25.39 63.74-25.39L63.74-25.39Q64.23-24.1 64.23-22.61L64.23-22.61 64.23 2.44Q64.23 4.71 63.67 6.7 63.11 8.69 62.3 9.89 61.49 11.08 60.9 11.73 60.3 12.38 59.93 12.6ZM58.25-34.45L58.25-34.45Q60.49-35.77 63.5-36.69L63.5-36.69Q63.5-34.74 64.13-32.69L64.13-32.69 63.84-32.25Q61.54-32.1 58.98-30.96L58.98-30.96Q58.39-32.69 58.25-34.45ZM89.23-17.65L89.23-2.76Q89.23-2.34 89.41-1.99 89.59-1.64 89.85-1.4 90.1-1.17 90.59-0.95 91.08-0.73 91.45-0.61 91.81-0.49 92.47-0.29L92.47-0.29 92.28 0.29Q90.72 0 89.18 0L89.18 0Q87.25 0 85.37 0.39L85.37 0.39 85.22 0.15Q85.73-0.56 85.73-2.44L85.73-2.44 85.73-4.05Q84.51-1.78 81.94-0.39 79.36 1 76.73 1L76.73 1Q73.92 1 72.2-0.45 70.48-1.9 70.48-4.76L70.48-4.76Q70.48-6.62 71.24-8.07 72.01-9.52 73.3-10.53 74.58-11.55 76.59-12.33 78.61-13.11 80.74-13.6 82.88-14.09 85.73-14.5L85.73-14.5 85.73-16.75Q85.73-23.46 80.44-23.46L80.44-23.46Q78.73-23.46 76.25-22.62 73.77-21.78 72.09-20.41L72.09-20.41 71.09-21.56Q73.21-23.24 76.13-24.34 79.05-25.44 81.58-25.44L81.58-25.44Q82.71-25.44 83.72-25.23 84.73-25.02 85.77-24.48 86.81-23.93 87.55-23.08 88.3-22.24 88.76-20.84 89.23-19.43 89.23-17.65L89.23-17.65ZM77.87-0.85L77.87-0.85Q80-0.85 82.32-2.26 84.64-3.66 85.73-5.76L85.73-5.76 85.73-13.21Q79.48-12.3 76.81-10.44 74.14-8.57 74.14-5L74.14-5Q74.14-2.83 75.07-1.84 75.99-0.85 77.87-0.85ZM120.06-22.19L120.06-6.81Q120.06-5.18 120.22-4.09 120.38-3 120.78-2.34 121.18-1.68 121.89-1.4 122.6-1.12 123.38-1.12 124.16-1.12 124.36-1.15L124.36-1.15 124.48-0.71Q120.45 0.49 117.06 0.49L117.06 0.49Q116.57-0.83 116.57-2.29L116.57-2.29 116.57-3.44Q115.27-2.29 114.16-1.46 113.05-0.63 111.98-0.09 110.9 0.46 109.78 0.73 108.66 1 107.36 1L107.36 1Q105.9 1 104.45 0.66 102.99 0.32 101.82-0.56 100.65-1.44 99.93-2.95 99.21-4.47 99.21-6.81L99.21-6.81 99.21-21.9Q99.21-22.88 98.39-23.39 97.57-23.9 95.96-24.34L95.96-24.34 96.16-24.95Q97.57-24.66 99.82-24.66L99.82-24.66Q101.21-24.66 103.07-25.05L103.07-25.05 103.21-24.8Q102.72-24.05 102.72-22.19L102.72-22.19 102.72-7.69Q102.72-5.66 103.19-4.36 103.65-3.05 104.43-2.29 105.21-1.54 106.26-1.26 107.31-0.98 108.49-0.98L108.49-0.98Q109.58-0.98 110.52-1.21 111.46-1.44 112.42-1.94 113.37-2.44 114.37-3.23 115.37-4.03 116.57-5.15L116.57-5.15 116.57-21.29Q116.57-22.05 116.43-22.52 116.3-23 115.92-23.33 115.54-23.66 114.83-23.9 114.13-24.15 112.98-24.44L112.98-24.44 113.17-25.05Q114.57-24.85 115.57-24.76 116.57-24.66 117.18-24.66L117.18-24.66Q118.57-24.66 120.42-25.05L120.42-25.05 120.57-24.8Q120.06-24.07 120.06-22.19L120.06-22.19ZM136.12-22.61L136.12-6.74Q136.12-3.42 136.85-2.16 137.59-0.9 139.22-0.9L139.22-0.9Q141-0.9 143.57-2.25L143.57-2.25 144.32-1.2Q140.3 1 137.73 1L137.73 1Q136.36 1 135.51 0.76 134.66 0.51 133.95-0.2 133.24-0.9 132.93-2.28 132.63-3.66 132.63-5.86L132.63-5.86 132.63-22.41 128.97-22.19 128.97-23.75Q130.9-24.17 132.63-24.29L132.63-24.29 132.63-27.76Q134.7-28.93 136.02-31.1L136.02-31.1 136.78-30.81Q136.36-29.83 136.24-28.6 136.12-27.37 136.12-24.44L136.12-24.44 144.52-24.44 144.52-23.58Q143.49-23.17 142.44-22.89 141.39-22.61 140.27-22.61L140.27-22.61 136.12-22.61ZM160.41-25.39L160.41-25.39Q166.03-25.39 169.22-21.95 172.42-18.51 172.42-12.35L172.42-12.35Q172.42-8.79 170.79-5.71 169.15-2.64 166.34-0.82 163.53 1 160.26 1L160.26 1Q154.62 1 151.44-2.4 148.25-5.81 148.25-12.06L148.25-12.06Q148.25-15.77 149.89-18.84 151.52-21.9 154.32-23.65 157.11-25.39 160.41-25.39ZM159.92-23.71L159.92-23.71Q157.99-23.71 156.58-23.14 155.16-22.58 154.31-21.63 153.45-20.68 152.94-19.21 152.43-17.75 152.24-16.21 152.06-14.67 152.06-12.65L152.06-12.65Q152.06-9.42 152.83-7.02 153.6-4.61 154.89-3.28 156.19-1.95 157.65-1.33 159.12-0.71 160.75-0.71L160.75-0.71Q162.66-0.71 164.08-1.31 165.51-1.9 166.37-2.87 167.22-3.83 167.73-5.31 168.25-6.79 168.43-8.3 168.61-9.81 168.61-11.74L168.61-11.74Q168.61-14.45 168.1-16.58 167.59-18.7 166.75-20.02 165.9-21.34 164.74-22.19 163.58-23.05 162.41-23.38 161.24-23.71 159.92-23.71ZM194.22-5.69L194.22-5.69Q194.22-3.93 193.51-2.66 192.8-1.39 191.62-0.57 190.44 0.24 188.86 0.62 187.29 1 185.55 1L185.55 1Q181.35 1 177.67-0.76L177.67-0.76Q178.13-2.37 178.6-3.75 179.06-5.13 179.55-6.3L179.55-6.3 180.26-6.05Q180.04-4.98 180.04-3.99 180.04-3 180.11-2.2L180.11-2.2Q180.87-1.81 181.53-1.53 182.18-1.25 182.84-1.06 183.5-0.88 184.26-0.79 185.02-0.71 186.02-0.71L186.02-0.71Q187.51-0.71 188.48-0.9 189.46-1.1 190.01-1.57 190.56-2.05 190.78-2.84 191-3.64 191-4.81L191-4.81Q191-5.71 190.69-6.51 190.39-7.3 189.64-8.08 188.9-8.86 187.67-9.7 186.43-10.55 184.6-11.55L184.6-11.55Q181.65-13.31 180.13-15.05 178.62-16.8 178.62-18.8L178.62-18.8Q178.62-20.39 179.28-21.62 179.94-22.85 181.07-23.69 182.21-24.54 183.72-24.96 185.24-25.39 186.92-25.39L186.92-25.39Q187.78-25.39 188.72-25.27 189.66-25.15 190.53-24.91 191.41-24.68 192.18-24.35 192.95-24.02 193.51-23.61L193.51-23.61Q192.73-20.41 191.61-17.99L191.61-17.99 190.9-18.26Q190.95-18.97 190.97-20.01 191-21.04 191-22.46L191-22.46Q189.41-23.71 186.6-23.71L186.6-23.71Q185.21-23.71 184.25-23.54 183.28-23.36 182.7-22.95 182.11-22.53 181.86-21.81 181.6-21.09 181.6-20L181.6-20Q181.6-19.19 181.82-18.49 182.04-17.8 182.6-17.13 183.16-16.46 184.13-15.76 185.09-15.06 186.6-14.26L186.6-14.26Q188.97-12.96 190.45-11.99 191.93-11.01 192.77-10.07 193.61-9.13 193.92-8.11 194.22-7.08 194.22-5.69ZM222.83-18.99L222.83-18.99 222.83-19.8Q225.27-20.07 227-20.78 228.74-21.48 229.86-22.58 230.98-23.68 231.51-25.17 232.03-26.66 232.03-28.49L232.03-28.49Q231.96-29.96 231.61-30.96 231.25-31.96 230.42-32.58 229.59-33.2 228.21-33.48 226.83-33.76 224.71-33.76L224.71-33.76Q223.93-33.76 223.06-33.73 222.19-33.69 221.19-33.64L221.19-33.64Q221.34-33.06 221.34-32.4L221.34-32.4 221.34-4.39Q221.34-3.39 221.52-2.69 221.71-1.98 222.15-1.49 222.58-1 223.33-0.7 224.07-0.39 225.2-0.2L225.2-0.2 224.98 0.39Q223.49 0.2 222.41 0.1 221.34 0 220.63 0L220.63 0Q219.97 0 219.12 0.1 218.26 0.2 217.24 0.39L217.24 0.39 217.09 0.15Q217.58-0.56 217.58-2.44L217.58-2.44 217.58-28.1Q217.58-29.71 217.43-30.8 217.29-31.88 216.9-32.54 216.51-33.2 215.8-33.48 215.09-33.76 213.28-33.74L213.28-33.74 213.19-34.45Q214.82-34.67 216.08-34.84 217.34-35.01 218.47-35.14 219.61-35.28 220.72-35.38 221.83-35.47 222.85-35.53 223.88-35.6 224.5-35.62 225.12-35.64 225.69-35.64L225.69-35.64Q227.91-35.64 229.8-35.31 231.69-34.99 233.07-34.17 234.45-33.35 235.22-31.96 235.99-30.57 235.99-28.44L235.99-28.44Q235.99-26.86 235.29-25.44 234.6-24.02 233.41-22.85 232.23-21.68 230.65-20.79 229.08-19.9 227.3-19.36L227.3-19.36 227.3-19.09 237.23-4.91Q238.53-3.03 240.58-2L240.58-2Q242.58-1.15 243.01-1 243.43-0.85 244-0.66L244-0.66 244-0.2Q239.67-0.2 236.75 0.71L236.75 0.71 236.38 0.49Q236.38 0.15 235.96-0.52 235.55-1.2 234.95-2.04 234.35-2.88 232.81-5.09 231.28-7.3 222.83-18.99ZM265.77-17.65L265.77-2.76Q265.77-2.34 265.95-1.99 266.14-1.64 266.39-1.4 266.65-1.17 267.14-0.95 267.63-0.73 267.99-0.61 268.36-0.49 269.02-0.29L269.02-0.29 268.82 0.29Q267.26 0 265.72 0L265.72 0Q263.79 0 261.91 0.39L261.91 0.39 261.77 0.15Q262.28-0.56 262.28-2.44L262.28-2.44 262.28-4.05Q261.06-1.78 258.48-0.39 255.91 1 253.27 1L253.27 1Q250.46 1 248.74-0.45 247.02-1.9 247.02-4.76L247.02-4.76Q247.02-6.62 247.79-8.07 248.56-9.52 249.84-10.53 251.12-11.55 253.14-12.33 255.15-13.11 257.29-13.6 259.42-14.09 262.28-14.5L262.28-14.5 262.28-16.75Q262.28-23.46 256.98-23.46L256.98-23.46Q255.27-23.46 252.79-22.62 250.32-21.78 248.63-20.41L248.63-20.41 247.63-21.56Q249.76-23.24 252.67-24.34 255.59-25.44 258.13-25.44L258.13-25.44Q259.25-25.44 260.27-25.23 261.28-25.02 262.32-24.48 263.35-23.93 264.1-23.08 264.84-22.24 265.31-20.84 265.77-19.43 265.77-17.65L265.77-17.65ZM254.42-0.85L254.42-0.85Q256.54-0.85 258.86-2.26 261.18-3.66 262.28-5.76L262.28-5.76 262.28-13.21Q256.03-12.3 253.36-10.44 250.68-8.57 250.68-5L250.68-5Q250.68-2.83 251.61-1.84 252.54-0.85 254.42-0.85ZM280.66-22.61L280.66-6.74Q280.66-3.42 281.39-2.16 282.13-0.9 283.76-0.9L283.76-0.9Q285.54-0.9 288.11-2.25L288.11-2.25 288.86-1.2Q284.84 1 282.27 1L282.27 1Q280.91 1 280.05 0.76 279.2 0.51 278.49-0.2 277.78-0.9 277.47-2.28 277.17-3.66 277.17-5.86L277.17-5.86 277.17-22.41 273.51-22.19 273.51-23.75Q275.44-24.17 277.17-24.29L277.17-24.29 277.17-27.76Q279.24-28.93 280.56-31.1L280.56-31.1 281.32-30.81Q280.91-29.83 280.78-28.6 280.66-27.37 280.66-24.44L280.66-24.44 289.06-24.44 289.06-23.58Q288.03-23.17 286.98-22.89 285.93-22.61 284.81-22.61L284.81-22.61 280.66-22.61ZM311.3-17.65L311.3-2.76Q311.3-2.34 311.48-1.99 311.66-1.64 311.92-1.4 312.18-1.17 312.67-0.95 313.15-0.73 313.52-0.61 313.89-0.49 314.55-0.29L314.55-0.29 314.35 0.29Q312.79 0 311.25 0L311.25 0Q309.32 0 307.44 0.39L307.44 0.39 307.29 0.15Q307.81-0.56 307.81-2.44L307.81-2.44 307.81-4.05Q306.59-1.78 304.01-0.39 301.43 1 298.8 1L298.8 1Q295.99 1 294.27-0.45 292.55-1.9 292.55-4.76L292.55-4.76Q292.55-6.62 293.32-8.07 294.09-9.52 295.37-10.53 296.65-11.55 298.66-12.33 300.68-13.11 302.81-13.6 304.95-14.09 307.81-14.5L307.81-14.5 307.81-16.75Q307.81-23.46 302.51-23.46L302.51-23.46Q300.8-23.46 298.32-22.62 295.84-21.78 294.16-20.41L294.16-20.41 293.16-21.56Q295.28-23.24 298.2-24.34 301.12-25.44 303.66-25.44L303.66-25.44Q304.78-25.44 305.79-25.23 306.81-25.02 307.84-24.48 308.88-23.93 309.63-23.08 310.37-22.24 310.83-20.84 311.3-19.43 311.3-17.65L311.3-17.65ZM299.95-0.85L299.95-0.85Q302.07-0.85 304.39-2.26 306.71-3.66 307.81-5.76L307.81-5.76 307.81-13.21Q301.56-12.3 298.88-10.44 296.21-8.57 296.21-5L296.21-5Q296.21-2.83 297.14-1.84 298.07-0.85 299.95-0.85ZM336.1-5.69L336.1-5.69Q336.1-3.93 335.39-2.66 334.68-1.39 333.5-0.57 332.32 0.24 330.74 0.62 329.17 1 327.43 1L327.43 1Q323.23 1 319.55-0.76L319.55-0.76Q320.01-2.37 320.48-3.75 320.94-5.13 321.43-6.3L321.43-6.3 322.14-6.05Q321.92-4.98 321.92-3.99 321.92-3 321.99-2.2L321.99-2.2Q322.75-1.81 323.41-1.53 324.06-1.25 324.72-1.06 325.38-0.88 326.14-0.79 326.9-0.71 327.9-0.71L327.9-0.71Q329.39-0.71 330.36-0.9 331.34-1.1 331.89-1.57 332.44-2.05 332.66-2.84 332.88-3.64 332.88-4.81L332.88-4.81Q332.88-5.71 332.57-6.51 332.27-7.3 331.52-8.08 330.78-8.86 329.55-9.7 328.31-10.55 326.48-11.55L326.48-11.55Q323.53-13.31 322.01-15.05 320.5-16.8 320.5-18.8L320.5-18.8Q320.5-20.39 321.16-21.62 321.82-22.85 322.95-23.69 324.09-24.54 325.6-24.96 327.12-25.39 328.8-25.39L328.8-25.39Q329.66-25.39 330.59-25.27 331.53-25.15 332.41-24.91 333.29-24.68 334.06-24.35 334.83-24.02 335.39-23.61L335.39-23.61Q334.61-20.41 333.49-17.99L333.49-17.99 332.78-18.26Q332.83-18.97 332.85-20.01 332.88-21.04 332.88-22.46L332.88-22.46Q331.29-23.71 328.48-23.71L328.48-23.71Q327.09-23.71 326.13-23.54 325.16-23.36 324.58-22.95 323.99-22.53 323.73-21.81 323.48-21.09 323.48-20L323.48-20Q323.48-19.19 323.7-18.49 323.92-17.8 324.48-17.13 325.04-16.46 326.01-15.76 326.97-15.06 328.48-14.26L328.48-14.26Q330.85-12.96 332.33-11.99 333.81-11.01 334.65-10.07 335.49-9.13 335.8-8.11 336.1-7.08 336.1-5.69Z" opacity="1" transform="matrix(1,0,0,1,0,0)" fill="white" class="wordmark-text-0" id="SvgjsPath1096"></path></svg></g></svg></g></svg></g></svg></g><g></g></svg></g></svg></g></svg></g></svg></g><defs><mask></mask></defs></svg></g></mask><linearGradient x1="0.054" x2="0.941" y1="0.5" y2="0.5" id="52aaaadf-3533-4156-abf9-f6e2dc1e8aa7"><stop stop-color="#0f3054" offset="0"></stop><stop stop-color="#3b8dcb" offset="0.498"></stop><stop stop-color="#0f3054" offset="1"></stop></linearGradient><rect width="320.0000000000001" height="360" fill="#ffffff" mask="url(#d6bd120b-993a-4d17-8b83-4dca52247b47)" data-fill-palette-color="primary"></rect><mask id="bb8c48a0-1b2a-402f-b64e-adbbc4b1e012"><g id="SvgjsG1106"><svg viewBox="0 0 320 360" height="360" width="320"><g><svg></svg></g><g><svg viewBox="0 0 320 360" height="360" width="320"><g><path d="M320 204.145c-0.08-8.44-5.414-15.128-5.494-23.568-0.04-8.44 5.215-18.631 5.136-27.071-2.667-8.002-9.833-12.7-12.501-20.702-2.667-8.002-0.836-19.348-3.463-27.35-5.016-6.808-13.297-9.037-18.274-15.805-5.016-6.808-6.768-18.154-11.744-24.921-6.847-4.897-15.407-4.499-22.294-9.396-6.847-4.897-12.023-15.168-18.91-20.065-8.042-2.548-16.044 0.518-24.086-2.07-8.042-2.548-16.123-10.709-24.165-13.257-8.44 0.08-15.128 5.414-23.568 5.494-8.44 0.04-18.631-5.215-27.071-5.135-8.002 2.667-12.7 9.833-20.702 12.5-8.002 2.667-19.348 0.836-27.35 3.504-6.808 5.016-9.037 13.297-15.805 18.273-6.808 5.016-18.154 6.768-24.922 11.784-4.897 6.847-4.499 15.407-9.395 22.294-4.897 6.847-15.168 12.023-20.065 18.91-2.548 8.042 0.478 16.044-2.07 24.086-2.548 8.042-10.709 16.123-13.257 24.165 0.04 8.44 5.414 15.128 5.494 23.568 0.04 8.44-5.215 18.631-5.136 27.071 2.667 8.002 9.833 12.7 12.501 20.702 2.667 8.002 0.836 19.348 3.503 27.35 5.016 6.808 13.297 9.037 18.273 15.845 5.016 6.808 6.768 18.154 11.745 24.921 6.847 4.897 15.407 4.499 22.294 9.396 6.847 4.897 12.023 15.168 18.91 20.065 8.042 2.548 16.044-0.478 24.086 2.07 8.042 2.548 16.123 10.709 24.165 13.257 8.44-0.08 15.128-5.414 23.568-5.494 8.44-0.04 18.631 5.215 27.071 5.135 8.002-2.667 12.7-9.833 20.702-12.5 8.002-2.667 19.348-0.836 27.35-3.504 6.808-5.016 9.037-13.297 15.845-18.273 6.808-5.016 18.154-6.768 24.921-11.744 4.897-6.847 4.499-15.407 9.396-22.294 4.897-6.847 15.168-12.023 20.064-18.91 2.548-8.042-0.478-16.044 2.071-24.086 2.468-8.121 10.63-16.203 13.177-24.245zM305.987 227.395c-3.623 7.126-12.501 13.456-16.164 20.582-3.623 7.126-2.03 15.088-5.653 22.215-5.653 5.653-16.044 8.918-21.737 14.57-5.653 5.653-6.569 13.735-12.261 19.388-7.126 3.623-18.034 3.503-25.161 7.166-7.126 3.623-10.51 11.028-17.636 14.651-7.922 1.234-18.233-2.229-26.156-0.996-7.922 1.234-13.416 7.246-21.299 8.48-7.922-1.234-16.641-7.763-24.563-8.997-7.922-1.274-14.969 2.747-22.891 1.473-7.126-3.623-13.456-12.54-20.582-16.163-7.126-3.623-15.088-2.03-22.255-5.654-5.653-5.653-8.918-16.044-14.571-21.736-5.653-5.653-13.735-6.609-19.387-12.262-3.623-7.126-3.503-18.034-7.166-25.161-3.623-7.126-11.028-10.51-14.651-17.636-1.234-7.922 2.229-18.233 0.995-26.156-1.274-7.922-7.246-13.416-8.479-21.298 1.274-7.922 7.763-16.641 8.997-24.564 1.234-7.922-2.747-14.969-1.473-22.891 3.623-7.126 12.54-13.456 16.163-20.582 3.623-7.126 2.03-15.088 5.653-22.254 5.653-5.653 16.044-8.918 21.737-14.571 5.653-5.653 6.609-13.735 12.262-19.388 7.126-3.623 18.034-3.503 25.16-7.166 7.126-3.623 10.51-11.028 17.637-14.651 7.922-1.234 18.233 2.229 26.155 0.996 7.922-1.234 13.416-7.246 21.299-8.48 7.922 1.234 16.641 7.763 24.564 8.997 7.922 1.274 14.969-2.747 22.891-1.473 7.126 3.623 13.456 12.54 20.582 16.163 7.126 3.623 15.088 2.03 22.254 5.654 5.653 5.653 8.918 16.044 14.571 21.736 5.653 5.653 13.735 6.609 19.388 12.262 3.623 7.126 3.503 18.034 7.166 25.161 3.623 7.126 11.028 10.51 14.65 17.636 1.274 7.922-2.229 18.233-0.995 26.156 1.234 7.922 7.246 13.416 8.48 21.298-1.234 7.922-7.763 16.641-8.997 24.564-1.234 7.922 2.747 15.009 1.473 22.931z" fill="white" fill-rule="nonzero" stroke="none" stroke-width="1" stroke-linecap="butt" stroke-linejoin="miter" stroke-miterlimit="10" stroke-dasharray="" stroke-dashoffset="0" font-family="none" font-weight="none" font-size="none" text-anchor="none" style="mix-blend-mode: normal"></path></g><g transform="matrix(1,0,0,1,48,163.3088375504217)"><svg viewBox="0 0 224 33.382324899156586" height="33.382324899156586" width="224"><g><svg viewBox="0 0 224 33.382324899156586" height="33.382324899156586" width="224"><g><svg viewBox="0 0 224 33.382324899156586" height="33.382324899156586" width="224"><g><svg viewBox="0 0 224 33.382324899156586" height="33.382324899156586" width="224"><g id="SvgjsG1105"><svg viewBox="0 0 224 33.382324899156586" height="33.382324899156586" width="224" id="SvgjsSvg1104"><g><svg viewBox="0 0 224 33.382324899156586" height="33.382324899156586" width="224"><g transform="matrix(1,0,0,1,0,0)"><svg width="224" viewBox="3.25 -36.69 332.85 49.61" height="33.382324899156586" data-palette-color="url(#52aaaadf-3533-4156-abf9-f6e2dc1e8aa7)"></svg></g></svg></g></svg></g></svg></g><g></g></svg></g></svg></g></svg></g></svg></g><defs><mask></mask></defs><mask><g id="SvgjsG1103"><svg viewBox="0 0 320 360" height="360" width="320"><g><svg></svg></g><g><svg viewBox="0 0 320 360" height="360" width="320"><g></g><g transform="matrix(1,0,0,1,48,163.3088375504217)"><svg viewBox="0 0 224 33.382324899156586" height="33.382324899156586" width="224"><g><svg viewBox="0 0 224 33.382324899156586" height="33.382324899156586" width="224"><g><svg viewBox="0 0 224 33.382324899156586" height="33.382324899156586" width="224"><g><svg viewBox="0 0 224 33.382324899156586" height="33.382324899156586" width="224"><g id="SvgjsG1102"><svg viewBox="0 0 224 33.382324899156586" height="33.382324899156586" width="224" id="SvgjsSvg1101"><g><svg viewBox="0 0 224 33.382324899156586" height="33.382324899156586" width="224"><g transform="matrix(1,0,0,1,0,0)"><svg width="224" viewBox="3.25 -36.69 332.85 49.61" height="33.382324899156586" data-palette-color="url(#52aaaadf-3533-4156-abf9-f6e2dc1e8aa7)"></svg></g></svg></g></svg></g></svg></g><g></g></svg></g></svg></g></svg></g></svg></g><defs><mask></mask></defs></svg></g></mask></svg></g></mask><linearGradient x1="0.054" x2="0.941" y1="0.5" y2="0.5" id="ed567f2e-e7db-4fa6-a60c-eca660deaa6f"><stop stop-color="#0f3054" offset="0"></stop><stop stop-color="#3b8dcb" offset="0.498"></stop><stop stop-color="#0f3054" offset="1"></stop></linearGradient></svg><rect width="320" height="360" fill="none" stroke="none" visibility="hidden"></rect></g></svg></g></svg>